<svg width="86" height="14" viewBox="0 0 86 14" version="1.1" xmlns="http://www.w3.org/2000/svg" xmlns:xlink="http://www.w3.org/1999/xlink">
<g id="Canvas" fill="none">
<path id="Logo" d="M 1.31582 4.382L 5.49182 4.382L 5.49182 17L 1.31582 17L 1.31582 4.382ZM 17.5704 4.382L 21.3504 4.382L 21.3504 17L 17.8584 17L 12.8904 10.556L 12.8904 17L 9.09238 17L 9.09238 4.382L 12.5844 4.382L 17.5704 10.862L 17.5704 4.382ZM 34.4049 8.756C 33.7209 8.36 32.9589 8.012 32.1189 7.712C 31.2789 7.412 30.5949 7.262 30.0669 7.262C 29.5509 7.262 29.2929 7.448 29.2929 7.82C 29.2929 8.108 29.4549 8.33 29.7789 8.486C 30.1149 8.642 30.6429 8.816 31.3629 9.008C 32.2629 9.26 33.0069 9.512 33.5949 9.764C 34.1949 10.016 34.7169 10.418 35.1609 10.97C 35.6049 11.51 35.8269 12.224 35.8269 13.112C 35.8269 14.024 35.5869 14.792 35.1069 15.416C 34.6389 16.028 34.0029 16.484 33.1989 16.784C 32.3949 17.084 31.5009 17.234 30.5169 17.234C 29.4009 17.234 28.2729 17.054 27.1329 16.694C 26.0049 16.322 25.0269 15.818 24.1989 15.182L 25.7469 12.032C 26.3829 12.584 27.1809 13.058 28.1409 13.454C 29.1009 13.838 29.9049 14.03 30.5529 14.03C 30.8649 14.03 31.1109 13.976 31.2909 13.868C 31.4709 13.748 31.5609 13.568 31.5609 13.328C 31.5609 13.04 31.3869 12.818 31.0389 12.662C 30.7029 12.494 30.1689 12.32 29.4369 12.14C 28.5489 11.912 27.8049 11.678 27.2049 11.438C 26.6169 11.186 26.1069 10.802 25.6749 10.286C 25.2429 9.77 25.0269 9.08 25.0269 8.216C 25.0269 7.376 25.2489 6.644 25.6929 6.02C 26.1369 5.384 26.7669 4.898 27.5829 4.562C 28.3989 4.226 29.3469 4.058 30.4269 4.058C 31.4109 4.058 32.3889 4.196 33.3609 4.472C 34.3449 4.748 35.1969 5.114 35.9169 5.57L 34.4049 8.756ZM 42.704 11.762C 42.704 12.362 42.884 12.854 43.244 13.238C 43.604 13.622 44.036 13.814 44.54 13.814C 45.032 13.814 45.44 13.628 45.764 13.256C 46.088 12.872 46.25 12.374 46.25 11.762L 46.25 4.382L 50.426 4.382L 50.426 11.762C 50.426 12.866 50.18 13.838 49.688 14.678C 49.208 15.506 48.524 16.148 47.636 16.604C 46.748 17.06 45.71 17.288 44.522 17.288C 43.334 17.288 42.284 17.06 41.372 16.604C 40.472 16.148 39.77 15.506 39.266 14.678C 38.774 13.838 38.528 12.866 38.528 11.762L 38.528 4.382L 42.704 4.382L 42.704 11.762ZM 61.1038 17L 59.5918 13.724L 58.0258 13.724L 58.0258 17L 53.8498 17L 53.8498 4.382L 59.9518 4.382C 61.6678 4.382 62.9938 4.778 63.9298 5.57C 64.8658 6.35 65.3338 7.46 65.3338 8.9C 65.3338 9.812 65.1598 10.61 64.8118 11.294C 64.4758 11.966 63.9838 12.5 63.3358 12.896L 65.8198 17L 61.1038 17ZM 58.0258 10.556L 59.9518 10.556C 60.4078 10.556 60.7558 10.424 60.9958 10.16C 61.2478 9.884 61.3738 9.506 61.3738 9.026C 61.3738 8.558 61.2478 8.198 60.9958 7.946C 60.7558 7.682 60.4078 7.55 59.9518 7.55L 58.0258 7.55L 58.0258 10.556ZM 68.6928 4.382L 79.3668 4.382L 79.3668 7.55L 72.8688 7.55L 72.8688 9.098L 78.7728 9.098L 78.7728 12.266L 72.8688 12.266L 72.8688 13.832L 79.5288 13.832L 79.5288 17L 68.6928 17L 68.6928 4.382ZM 84.3965 13.454C 84.9485 13.454 85.3925 13.628 85.7285 13.976C 86.0765 14.312 86.2505 14.75 86.2505 15.29C 86.2505 15.842 86.0765 16.292 85.7285 16.64C 85.3925 16.976 84.9485 17.144 84.3965 17.144C 83.8565 17.144 83.4125 16.976 83.0645 16.64C 82.7285 16.292 82.5605 15.842 82.5605 15.29C 82.5605 14.75 82.7285 14.312 83.0645 13.976C 83.4125 13.628 83.8565 13.454 84.3965 13.454Z" transform="translate(-1 -4)" fill="url(#paint0_linear)"/>
</g>
<defs>
<linearGradient id="paint0_linear" x2="1" gradientUnits="userSpaceOnUse" gradientTransform="matrix(91 -2.41701e-06 8.02828e-06 368.136 -2 -173.068)">
<stop offset="0.0276243" stop-color="#0B3997"/>
<stop offset="0.983425" stop-color="#2B8AFF"/>
</linearGradient>
</defs>
</svg>
