<?xml version="1.0"?>
<svg xmlns="http://www.w3.org/2000/svg" xmlns:xlink="http://www.w3.org/1999/xlink" version="1.1" id="Capa_1" x="0px" y="0px" viewBox="0 0 408 408" style="enable-background:new 0 0 408 408;" xml:space="preserve" width="18px" height="18px"><g><g>
	<g>
		<path d="M170,19.833c0-9.35-7.65-17-17-17H17c-9.35,0-17,7.65-17,17v136c0,9.35,7.65,17,17,17h136c9.35,0,17-7.65,17-17V19.833z     M34,36.833h102v102H34V36.833z" data-original="#000000" class="active-path" data-old_color="##1C1B1fill:##1C1B1fill:#000000fill:#000000fill:#000000" fill="##1C1B1"/>
		<path d="M408,19.833c0-9.35-7.65-17-17-17H255c-9.35,0-17,7.65-17,17v136c0,9.35,7.65,17,17,17h136c9.35,0,17-7.65,17-17V19.833z     M272,36.833h102v102H272V36.833z" data-original="#000000" class="active-path" data-old_color="##1C1B1fill:##1C1B1fill:#000000fill:#000000fill:#000000" fill="##1C1B1"/>
		<path d="M170,252.167c0-9.35-7.65-17-17-17H17c-9.35,0-17,7.65-17,17v136c0,9.35,7.65,17,17,17h136c9.35,0,17-7.65,17-17V252.167z     M34,269.167h102v102H34V269.167z" data-original="#000000" class="active-path" data-old_color="##1C1B1fill:##1C1B1fill:#000000fill:#000000fill:#000000" fill="##1C1B1"/>
		<path d="M408,252.167c0-9.35-7.65-17-17-17H255c-9.35,0-17,7.65-17,17v136c0,9.35,7.65,17,17,17h136c9.35,0,17-7.65,17-17V252.167    z M272,269.167h102v102H272V269.167z" data-original="#000000" class="active-path" data-old_color="##1C1B1fill:##1C1B1fill:#000000fill:#000000fill:#000000" fill="##1C1B1"/>
	</g>
</g></g> </svg>
